<?xml version="1.0" encoding="utf-8"?>
<!-- Generator: Adobe Illustrator 17.1.0, SVG Export Plug-In . SVG Version: 6.00 Build 0)  -->
<!DOCTYPE svg PUBLIC "-//W3C//DTD SVG 1.1//EN" "http://www.w3.org/Graphics/SVG/1.1/DTD/svg11.dtd">
<svg version="1.1" id="圖層_1" xmlns="http://www.w3.org/2000/svg" xmlns:xlink="http://www.w3.org/1999/xlink" x="0px" y="0px"
	 viewBox="0 123.3 595.3 595.3" enable-background="new 0 123.3 595.3 595.3" xml:space="preserve">
<path fill="#00BFA5" d="M577.7,597c-64.2-9.6-78.4-75-92.9-177.3c-14.1-98.8-31.3-219.9-152.4-239c0.1-1.2,0.2-2.5,0.2-3.8
	c0-0.6,0-1.2,0-1.8c-0.5-19.3-16.6-34.6-35.9-34.1c-19.3,0.5-34.6,16.6-34.1,35.9c0,1.3,0.1,2.6,0.2,3.8
	c-121,19.1-138.3,140.2-152.4,239C95.9,522.1,81.7,587.5,17.4,597H0v1.2v32.6v1.2h213.1c8.1,39.2,42.9,68.7,84.5,68.8
	c41.6,0,76.4-29.5,84.5-68.8h213.1v-1.2l0,0v-32.5v-1.2L577.7,597L577.7,597z M142.7,424.3c15.6-109.8,30.4-213.6,154.9-213.6
	s139.3,103.9,154.9,213.7c9.4,66.1,19,133.6,55.8,172.8H86.9C123.7,557.9,133.3,490.3,142.7,424.3z M297.7,668.3
	c-23.5,0-43.5-15.1-50.8-36.2h101.6C341.2,653.1,321.2,668.3,297.7,668.3z"/>
</svg>
