<?xml version="1.0" encoding="utf-8"?>
<!-- Generator: Adobe Illustrator 17.1.0, SVG Export Plug-In . SVG Version: 6.00 Build 0)  -->
<!DOCTYPE svg PUBLIC "-//W3C//DTD SVG 1.1//EN" "http://www.w3.org/Graphics/SVG/1.1/DTD/svg11.dtd">
<svg version="1.1" id="圖層_1" xmlns="http://www.w3.org/2000/svg" xmlns:xlink="http://www.w3.org/1999/xlink" x="0px" y="0px"
	 viewBox="0 123.3 595.3 595.3" enable-background="new 0 123.3 595.3 595.3" xml:space="preserve">
<path id="Path_286" fill="#00BFA5" d="M297.6,716.2c-39.4,0.1-78.4-7.9-114.7-23.3c-70.8-30.1-127.1-86.5-157.3-157.3
	c-31.1-73.3-31.1-156.1,0-229.3C55.8,235.5,112.2,179.1,183,149c36.3-15.5,75.3-23.4,114.7-23.3c39-0.1,77.7,6.9,114.3,20.7
	c34.5,12.9,66.3,32,93.8,56.3c26.7,23.4,48.3,51.9,63.8,83.8c15.4,32.1,23.4,67.3,23.4,102.9c-0.3,93.1-75.7,168.6-168.9,168.9
	h-56.9c-19.8-0.5-36.2,15.2-36.6,35c0,0.6,0,1.1,0,1.7c-0.2,8.9,3.2,17.6,9.4,24c10.3,10.4,16,24.6,15.8,39.2
	c0.5,31.7-24.8,57.7-56.5,58.2C298.7,716.2,298.2,716.2,297.6,716.2z M297.6,147.2c-36.5,0-72.7,7.3-106.3,21.6
	c-65.6,28-117.9,80.2-145.8,145.8c-28.8,67.9-28.8,144.6,0,212.5c27.9,65.7,80.2,117.9,145.8,145.9c33.6,14.3,69.8,21.6,106.3,21.6
	c19.8,0.5,36.2-15.2,36.6-35c0-0.6,0-1.1,0-1.7c0.2-8.9-3.2-17.6-9.4-24c-10.3-10.4-16-24.6-15.8-39.2c-0.4-31.7,25-57.7,56.8-58.1
	c0.5,0,1,0,1.4,0h56.9c81.2-0.2,147-66,147.3-147.3c0-32.4-7.3-64.4-21.4-93.5c-14.2-29.3-34.1-55.5-58.6-77
	c-25.6-22.7-55.1-40.4-87.1-52.3C370.2,153.7,334.1,147.2,297.6,147.2z M471.5,431.7c-31.7-0.4-57.1-26.5-56.6-58.2
	c0.4-31.7,26.5-57.1,58.2-56.6c31.7,0.4,57.1,26.5,56.6,58.2c-0.2,14.9-6.2,29.2-16.8,39.8C501.9,425.8,487,431.9,471.5,431.7
	L471.5,431.7z M471.5,336.9c-20.2,0-36.6,16.4-36.6,36.6c0,20.2,16.4,36.6,36.6,36.6c20.2,0,36.6-16.4,36.6-36.6
	c0.5-19.8-15.2-36.2-35-36.6C472.6,336.9,472.1,336.9,471.5,336.9L471.5,336.9z M123.8,431.7c-31.7-0.4-57.1-26.5-56.6-58.2
	c0.4-31.7,26.5-57.1,58.2-56.6c31.7,0.4,57.1,26.5,56.6,58.2c-0.2,14.9-6.2,29.2-16.8,39.8C154.2,425.8,139.3,431.9,123.8,431.7z
	 M123.8,336.9c-20.2,0-36.6,16.4-36.6,36.6c0,20.2,16.4,36.6,36.6,36.6c20.2,0,36.6-16.4,36.6-36.6c0.5-19.8-15.2-36.2-34.9-36.7
	C124.9,336.9,124.3,336.9,123.8,336.9L123.8,336.9z M376.5,305.3c-31.7-0.4-57.1-26.5-56.6-58.2c0.4-31.7,26.5-57.1,58.2-56.6
	c31.7,0.4,57.1,26.5,56.6,58.2c-0.2,14.9-6.2,29.2-16.8,39.8c-11,10.8-25.9,16.9-41.3,16.7L376.5,305.3z M376.5,210.5
	c-20.2,0.1-36.5,16.6-36.4,36.9c0.1,20.2,16.6,36.5,36.9,36.4c20.2-0.1,36.4-16.5,36.4-36.7c0.5-19.8-15.2-36.2-35-36.6
	C377.8,210.4,377.2,210.4,376.5,210.5L376.5,210.5z M218.7,305.2c-31.7-0.4-57.1-26.5-56.6-58.2c0.4-31.7,26.5-57.1,58.2-56.6
	c31.7,0.4,57.1,26.5,56.6,58.2c-0.2,14.9-6.2,29.2-16.8,39.8C249.1,299.3,234.1,305.3,218.7,305.2z M218.7,210.4
	c-20.2,0-36.6,16.4-36.6,36.6c0,20.2,16.4,36.6,36.6,36.6c20.2,0,36.6-16.4,36.6-36.6c0.4-19.8-15.3-36.1-35.1-36.5
	C219.7,210.4,219.2,210.4,218.7,210.4L218.7,210.4z"/>
</svg>
