<?xml version="1.0" encoding="utf-8"?>
<!-- Generator: Adobe Illustrator 21.0.2, SVG Export Plug-In . SVG Version: 6.00 Build 0)  -->
<svg version="1.1" id="圖層_1" xmlns="http://www.w3.org/2000/svg" xmlns:xlink="http://www.w3.org/1999/xlink" x="0px" y="0px"
	 viewBox="0 0 94 50" style="enable-background:new 0 0 94 50;" xml:space="preserve">
<path id="Fill-60" d="M40.7,35c-1,0-1.9-0.4-2.6-1.2c-1.4-1.6-1.4-4.1,0-5.7l10.5-11.5c1.7-1.9,4.6-2.1,6.5-0.4
	c0.2,0.1,0.3,0.3,0.4,0.4c0.9,1,1.5,2.4,1.4,3.8c0,1.4-0.5,2.8-1.4,3.8l-7.9,8.7L46.8,32l7.9-8.7c1.5-1.7,1.5-4.2,0-5.8
	c-1.3-1.5-3.5-1.6-5-0.3c-0.1,0.1-0.2,0.2-0.3,0.3L38.9,29c-1,1.1-1,2.8,0,3.9c0.9,1,2.4,1.1,3.4,0.2c0.1-0.1,0.2-0.1,0.2-0.2
	l7.9-8.7c0.5-0.6,0.5-1.4,0-2c-0.4-0.5-1.2-0.6-1.7-0.1c0,0-0.1,0.1-0.1,0.1L43.3,28l-0.8-0.9l5.3-5.8c0.8-1,2.3-1,3.2-0.2
	c0.1,0.1,0.1,0.1,0.2,0.2c0.9,1.1,0.9,2.7,0,3.8l-7.9,8.7C42.6,34.6,41.7,35,40.7,35"/>
</svg>
