<?xml version="1.0" encoding="utf-8"?>
<!-- Generator: Adobe Illustrator 21.0.2, SVG Export Plug-In . SVG Version: 6.00 Build 0)  -->
<svg version="1.1" id="圖層_1" xmlns="http://www.w3.org/2000/svg" xmlns:xlink="http://www.w3.org/1999/xlink" x="0px" y="0px"
	 viewBox="0 0 94 50" style="enable-background:new 0 0 94 50;" xml:space="preserve">
<g id="Group_68" transform="translate(468 189)">
	<path id="Fill-21" d="M-411.1-154h-19.8c-1.2,0-2.1-1-2.1-2.1V-169c0-1.2,0.9-2.1,2.1-2.1h4.2c0.2,0,0.3-0.1,0.4-0.2l0.8-1.6
		c0.3-0.6,1-1,1.7-1h5.6c0.7,0,1.3,0.4,1.7,1l0.8,1.6c0.1,0.1,0.2,0.2,0.4,0.2h4.2c1.2,0,2.1,1,2.1,2.1v12.9
		C-409-155-409.9-154-411.1-154z M-430.9-169.7c-0.4,0-0.7,0.3-0.7,0.7v12.9c0,0.4,0.3,0.7,0.7,0.7h19.8c0.4,0,0.7-0.3,0.7-0.7V-169
		c0-0.4-0.3-0.7-0.7-0.7h-4.2c-0.7,0-1.3-0.4-1.7-1l-0.8-1.6c-0.1-0.1-0.2-0.2-0.4-0.2h-5.6c-0.2,0-0.3,0.1-0.4,0.2l-0.8,1.6
		c-0.3,0.6-1,1-1.7,1H-430.9z"/>
	<path id="Fill-22" d="M-421-156.9c-3.6,0-6.5-2.8-6.5-6.4c0-3.6,2.8-6.5,6.4-6.5c3.6,0,6.5,2.8,6.5,6.4c0,0,0,0.1,0,0.1
		C-414.6-159.8-417.5-156.9-421-156.9z M-421-168.3c-2.8,0-5,2.2-5.1,4.9s2.2,5,4.9,5.1c2.8,0,5-2.2,5.1-4.9c0,0,0,0,0-0.1
		C-416-166-418.3-168.3-421-168.3z"/>
	<path id="Fill-23" d="M-413.2-168.3c0,0.4-0.3,0.7-0.7,0.7c-0.4,0-0.7-0.3-0.7-0.7c0-0.4,0.3-0.7,0.7-0.7
		C-413.5-169-413.2-168.7-413.2-168.3C-413.2-168.3-413.2-168.3-413.2-168.3"/>
	<path id="Fill-24" d="M-430.2-172.6h2.8v0.7h-2.8V-172.6z"/>
	<path id="Fill-25" d="M-421-166.1v-0.7c-2,0-3.5,1.6-3.5,3.6h0.7C-423.8-164.9-422.6-166.1-421-166.1"/>
</g>
</svg>
