<?xml version="1.0" encoding="utf-8"?>
<!-- Generator: Adobe Illustrator 21.0.2, SVG Export Plug-In . SVG Version: 6.00 Build 0)  -->
<svg version="1.1" id="圖層_1" xmlns="http://www.w3.org/2000/svg" xmlns:xlink="http://www.w3.org/1999/xlink" x="0px" y="0px"
	 viewBox="0 0 94 50" style="enable-background:new 0 0 94 50;" xml:space="preserve">
<style type="text/css">
	.st0{fill:none;stroke:#000000;stroke-width:1.3;}
</style>
<g id="Group_70" transform="translate(3084 1004.93)">
	<path id="Fill-25" d="M-3037-967.9c-6.6,0-12-5.4-12-12c0-6.6,5.4-12,12-12s12,5.4,12,12C-3025-973.3-3030.4-967.9-3037-967.9z
		 M-3037-990.6c-5.9,0-10.7,4.8-10.7,10.7c0,5.9,4.8,10.7,10.7,10.7c5.9,0,10.7-4.8,10.7-10.7
		C-3026.3-985.8-3031.1-990.6-3037-990.6z"/>
	<ellipse id="Ellipse_10" cx="-3041.5" cy="-982.8" rx="1.4" ry="1.4"/>
	<ellipse id="Ellipse_11" cx="-3032.3" cy="-982.8" rx="1.4" ry="1.4"/>
	<path id="Path_27" class="st0" d="M-3043-978.9c0,0,0.8,5.5,6.4,5.4c3,0.1,5.5-2.2,5.7-5.1c0-0.1,0-0.2,0-0.2"/>
</g>
</svg>
