<?xml version="1.0" encoding="utf-8"?>
<!-- Generator: Adobe Illustrator 21.0.2, SVG Export Plug-In . SVG Version: 6.00 Build 0)  -->
<svg version="1.1" id="圖層_1" xmlns="http://www.w3.org/2000/svg" xmlns:xlink="http://www.w3.org/1999/xlink" x="0px" y="0px"
	 viewBox="0 0 94 50" style="enable-background:new 0 0 94 50;" xml:space="preserve">
<g id="Group_69" transform="translate(648 203)">
	<path id="Fill-12" d="M-591.1-168h-19.8c-1.2-0.1-2.2-1.1-2.1-2.3v-15.4c0-1.2,0.9-2.3,2.1-2.3h19.8c1.2,0.1,2.2,1.1,2.1,2.3v15.4
		C-589-169.1-589.9-168.1-591.1-168z M-610.9-186.5c-0.4,0-0.7,0.4-0.7,0.8v15.4c0,0.4,0.3,0.8,0.7,0.8h19.8c0.4,0,0.7-0.4,0.7-0.8
		v-15.4c0-0.4-0.3-0.8-0.7-0.8L-610.9-186.5z"/>
	<path id="Fill-13" d="M-597.5-178.8c-1.6-0.1-2.8-1.4-2.8-3c-0.1-1.6,1.2-2.9,2.8-3c1.6,0.1,2.8,1.4,2.8,3
		C-594.6-180.2-595.9-178.9-597.5-178.8z M-597.5-183.4c-0.8,0-1.5,0.7-1.5,1.6c-0.1,0.8,0.5,1.5,1.3,1.6s1.5-0.5,1.6-1.3
		c0-0.1,0-0.2,0-0.3C-596-182.7-596.6-183.4-597.5-183.4L-597.5-183.4z"/>
	<path id="Fill-14" d="M-593.7-168.2l-11.6-11.9l-6.6,6.7l-0.9-1l7.5-7.6l12.4,12.8L-593.7-168.2"/>
	<path id="Fill-15" d="M-590.1-172.2l-3.8-3.4l-3.2,2.9l-0.8-1.1l4.1-3.6l4.7,4.1L-590.1-172.2"/>
</g>
</svg>
