<?xml version="1.0" encoding="utf-8"?>
<!-- Generator: Adobe Illustrator 17.1.0, SVG Export Plug-In . SVG Version: 6.00 Build 0)  -->
<!DOCTYPE svg PUBLIC "-//W3C//DTD SVG 1.1//EN" "http://www.w3.org/Graphics/SVG/1.1/DTD/svg11.dtd">
<svg version="1.1" id="圖層_1" xmlns="http://www.w3.org/2000/svg" xmlns:xlink="http://www.w3.org/1999/xlink" x="0px" y="0px"
	 viewBox="0 123.3 595.3 595.3" enable-background="new 0 123.3 595.3 595.3" xml:space="preserve">
<path id="Fill-52" fill="#00BFA5" d="M297.6,718.6C133.3,718.6,0,585.3,0,420.9s133.3-297.6,297.6-297.6s297.6,133.3,297.6,297.6
	C595.1,585.3,461.9,718.4,297.6,718.6z M297.6,156C151.3,156,32.7,274.7,32.8,421s118.7,264.9,265,264.9S562.7,567.3,562.7,421
	C562.5,274.7,443.9,156.1,297.6,156L297.6,156z"/>
<polygon fill="#00BFA5" points="320.8,421 449.8,291.9 426.7,268.7 297.6,397.8 168.5,268.7 145.4,291.9 274.5,421 145.4,550 
	168.5,573.2 297.6,444.1 426.7,573.2 426.7,573.2 449.8,550 "/>
</svg>
