<svg xmlns="http://www.w3.org/2000/svg" xmlns:xlink="http://www.w3.org/1999/xlink" viewBox="2959.914 4365 230.818 68.391">
  <defs>
    <style>
      .cls-1, .cls-2, .cls-9 {
        fill: #fff;
      }

      .cls-1 {
        stroke: #fff;
        stroke-miterlimit: 10;
        stroke-width: 0.2px;
      }

      .cls-3 {
        fill: url(#linear-gradient);
      }

      .cls-4 {
        fill: url(#linear-gradient-2);
      }

      .cls-5 {
        fill: url(#linear-gradient-3);
      }

      .cls-6 {
        fill: url(#linear-gradient-4);
      }

      .cls-7 {
        opacity: 0.2;
      }

      .cls-8 {
        opacity: 0.12;
      }

      .cls-9 {
        opacity: 0.25;
      }
    </style>
    <linearGradient id="linear-gradient" x1="0.915" y1="6.632" x2="-0.376" y2="5.96" gradientUnits="objectBoundingBox">
      <stop offset="0" stop-color="#00a0ff"/>
      <stop offset="0.007" stop-color="#00a1ff"/>
      <stop offset="0.26" stop-color="#00beff"/>
      <stop offset="0.512" stop-color="#00d2ff"/>
      <stop offset="0.76" stop-color="#00dfff"/>
      <stop offset="1" stop-color="#00e3ff"/>
    </linearGradient>
    <linearGradient id="linear-gradient-2" x1="1.077" y1="17.2" x2="-1.307" y2="17.2" gradientUnits="objectBoundingBox">
      <stop offset="0" stop-color="#ffe000"/>
      <stop offset="0.409" stop-color="#ffbd00"/>
      <stop offset="0.775" stop-color="orange"/>
      <stop offset="1" stop-color="#ff9c00"/>
    </linearGradient>
    <linearGradient id="linear-gradient-3" x1="0.864" y1="10.839" x2="-0.499" y2="9.074" gradientUnits="objectBoundingBox">
      <stop offset="0" stop-color="#ff3a44"/>
      <stop offset="1" stop-color="#c31162"/>
    </linearGradient>
    <linearGradient id="linear-gradient-4" x1="-0.186" y1="13.614" x2="0.423" y2="12.822" gradientUnits="objectBoundingBox">
      <stop offset="0" stop-color="#32a071"/>
      <stop offset="0.068" stop-color="#2da771"/>
      <stop offset="0.476" stop-color="#15cf74"/>
      <stop offset="0.801" stop-color="#06e775"/>
      <stop offset="1" stop-color="#00f076"/>
    </linearGradient>
  </defs>
  <g id="Group_343" data-name="Group 343" transform="translate(2582.914 3815)">
    <g id="Group_339" data-name="Group 339" transform="translate(377 550)">
      <path id="Path_201" data-name="Path 201" d="M232.269,78.39H18.549A8.574,8.574,0,0,1,10,69.842V18.549A8.574,8.574,0,0,1,18.549,10h213.72a8.574,8.574,0,0,1,8.549,8.549V69.842A8.574,8.574,0,0,1,232.269,78.39Z" transform="translate(-10 -10)"/>
    </g>
    <g id="Group_340" data-name="Group 340" transform="translate(447.784 561.797)">
      <path id="Path_202" data-name="Path 202" class="cls-1" d="M61.659,22.542a4.657,4.657,0,0,1-1.2,3.42A5.3,5.3,0,0,1,51.4,22.2a5.254,5.254,0,0,1,5.3-5.3,4.553,4.553,0,0,1,2.052.513,3.723,3.723,0,0,1,1.539,1.2l-.855.855a3.188,3.188,0,0,0-2.736-1.2,3.4,3.4,0,0,0-2.736,1.2,3.522,3.522,0,0,0-1.2,2.907,3.522,3.522,0,0,0,1.2,2.907,4.4,4.4,0,0,0,2.736,1.2,3.75,3.75,0,0,0,2.907-1.2,2.831,2.831,0,0,0,.855-2.052H56.7v-1.2h4.958S61.659,22.371,61.659,22.542Z" transform="translate(-51.4 -16.9)"/>
      <path id="Path_203" data-name="Path 203" class="cls-1" d="M64.484,18.2H59.868v3.249h4.274v1.2H59.868v3.249h4.616v1.368H58.5V17h5.984Z" transform="translate(-46.361 -16.829)"/>
      <path id="Path_204" data-name="Path 204" class="cls-1" d="M67.074,27.259H65.707V18.2H62.8V17h7.181v1.2H67.074Z" transform="translate(-43.309 -16.829)"/>
      <path id="Path_205" data-name="Path 205" class="cls-1" d="M69.9,27.259V17h1.368V27.259Z" transform="translate(-38.269 -16.829)"/>
      <path id="Path_206" data-name="Path 206" class="cls-1" d="M75.874,27.259H74.507V18.2H71.6V17h7.01v1.2H75.7v9.062Z" transform="translate(-37.063 -16.829)"/>
      <path id="Path_207" data-name="Path 207" class="cls-1" d="M87.362,25.962A5.3,5.3,0,0,1,78.3,22.2a5.3,5.3,0,1,1,10.6,0A5.027,5.027,0,0,1,87.362,25.962Zm-6.5-.855A4.035,4.035,0,0,0,83.6,26.3a3.4,3.4,0,0,0,2.736-1.2,4.125,4.125,0,0,0,1.2-2.907,3.522,3.522,0,0,0-1.2-2.907A4.035,4.035,0,0,0,83.6,18.1a3.4,3.4,0,0,0-2.736,1.2,4.125,4.125,0,0,0-1.2,2.907A3.522,3.522,0,0,0,80.865,25.107Z" transform="translate(-32.307 -16.9)"/>
      <path id="Path_208" data-name="Path 208" class="cls-1" d="M85.6,27.259V17h1.539L92.1,25.036h0V17h1.368V27.259H92.1l-5.3-8.378h0v8.378Z" transform="translate(-27.126 -16.829)"/>
    </g>
    <path id="Path_209" data-name="Path 209" class="cls-2" d="M97.264,35.136a7.193,7.193,0,0,0-7.352,7.352,7.3,7.3,0,0,0,7.352,7.352,7.193,7.193,0,0,0,7.352-7.352A7.093,7.093,0,0,0,97.264,35.136Zm0,11.626a4.46,4.46,0,0,1,0-8.891,4.142,4.142,0,0,1,4.1,4.445A4.244,4.244,0,0,1,97.264,46.762Zm-15.9-11.626a7.193,7.193,0,0,0-7.352,7.352,7.3,7.3,0,0,0,7.352,7.352,7.193,7.193,0,0,0,7.352-7.352A7.093,7.093,0,0,0,81.363,35.136Zm0,11.626a4.46,4.46,0,0,1,0-8.891,4.142,4.142,0,0,1,4.1,4.445A4.244,4.244,0,0,1,81.363,46.762Zm-18.978-9.4v3.078h7.352a6.465,6.465,0,0,1-1.71,3.932,7.568,7.568,0,0,1-5.642,2.223,7.96,7.96,0,0,1-8.036-8.207,8.065,8.065,0,0,1,8.036-8.207A8.478,8.478,0,0,1,68.027,32.4l2.223-2.223A10.956,10.956,0,0,0,62.555,27.1,11.534,11.534,0,0,0,51.1,38.384,11.534,11.534,0,0,0,62.555,49.669,9.84,9.84,0,0,0,70.42,46.42a10.293,10.293,0,0,0,2.736-7.181,6.411,6.411,0,0,0-.171-1.881h-10.6Zm77.623,2.394c-.684-1.71-2.394-4.616-6.155-4.616s-6.839,2.907-6.839,7.352a7.155,7.155,0,0,0,7.181,7.352,7.014,7.014,0,0,0,5.984-3.249l-2.394-1.71a4.168,4.168,0,0,1-3.59,2.052,3.71,3.71,0,0,1-3.59-2.223l9.746-4.1Zm-9.917,2.394a4.153,4.153,0,0,1,3.761-4.274,3.024,3.024,0,0,1,2.736,1.539Zm-8.036,7.01H125.3V27.784h-3.249Zm-5.129-12.481h0a5.629,5.629,0,0,0-3.932-1.71,7.347,7.347,0,0,0-7.01,7.352,7.08,7.08,0,0,0,7.01,7.181,4.909,4.909,0,0,0,3.761-1.71h.171v1.026c0,2.736-1.539,4.274-3.932,4.274a3.8,3.8,0,0,1-3.59-2.565l-2.736,1.2a7.054,7.054,0,0,0,6.5,4.274c3.761,0,6.839-2.223,6.839-7.523V35.478h-3.078v1.2Zm-3.761,10.088a4.46,4.46,0,0,1,0-8.891c2.223,0,3.932,1.881,3.932,4.445S115.387,46.762,113.164,46.762Zm41.718-18.978h-7.694V49.156h3.249V41.12h4.445a6.676,6.676,0,1,0,0-13.336Zm.171,10.259h-4.616V30.691h4.616a3.755,3.755,0,0,1,3.761,3.59A3.913,3.913,0,0,1,155.054,38.042Zm19.662-3.078c-2.394,0-4.787,1.026-5.642,3.249l2.907,1.2a3.02,3.02,0,0,1,2.907-1.539,3.213,3.213,0,0,1,3.42,2.736v.171a6.782,6.782,0,0,0-3.249-.855c-3.078,0-6.155,1.71-6.155,4.787,0,2.907,2.565,4.787,5.3,4.787a4.811,4.811,0,0,0,4.1-2.052h.171v1.71h3.078V40.949C181.213,37.188,178.306,34.965,174.716,34.965Zm-.342,11.8c-1.026,0-2.565-.513-2.565-1.881,0-1.71,1.881-2.223,3.42-2.223a6.612,6.612,0,0,1,2.907.684A3.982,3.982,0,0,1,174.374,46.762Zm17.952-11.284-3.591,9.233h-.171L184.8,35.478h-3.42l5.642,12.994-3.249,7.181h3.249l8.72-20.175ZM163.6,49.156h3.249V27.784H163.6Z" transform="translate(396.171 552.137)"/>
    <g id="Group_342" data-name="Group 342" transform="translate(393.927 562.255)">
      <path id="Path_210" data-name="Path 210" class="cls-3" d="M20.755,17.5a3.382,3.382,0,0,0-.855,2.394V57.679a3.382,3.382,0,0,0,.855,2.394l.171.171,21.2-21.2V38.7L20.755,17.5Z" transform="translate(-19.9 -16.932)"/>
      <path id="Path_211" data-name="Path 211" class="cls-4" d="M39.91,40.333l-7.01-7.01V32.81l7.01-7.01.171.171,8.378,4.787c2.394,1.368,2.394,3.59,0,4.958L39.91,40.333Z" transform="translate(-10.673 -11.041)"/>
      <path id="Path_212" data-name="Path 212" class="cls-5" d="M48.953,37.181,41.772,30,20.4,51.372c.855.855,2.052.855,3.59.171L48.953,37.181" transform="translate(-19.545 -8.06)"/>
      <path id="Path_213" data-name="Path 213" class="cls-6" d="M48.953,31.924,23.99,17.733c-1.539-.855-2.736-.684-3.59.171l21.372,21.2Z" transform="translate(-19.545 -17.165)"/>
      <g id="Group_341" data-name="Group 341" transform="translate(0.171 28.95)">
        <path id="Path_214" data-name="Path 214" class="cls-7" d="M48.782,34.1,23.99,48.12a2.8,2.8,0,0,1-3.42,0h0l-.171.171h0l.171.171h0a2.8,2.8,0,0,0,3.42,0L48.782,34.1Z" transform="translate(-19.716 -34.1)"/>
        <path id="Path_215" data-name="Path 215" class="cls-8" d="M20.684,43.294A3.343,3.343,0,0,1,20,40.9v.171a3.382,3.382,0,0,0,.855,2.394v-.171Z" transform="translate(-20 -29.274)"/>
      </g>
      <path id="Path_216" data-name="Path 216" class="cls-8" d="M45.549,32.223,37,37.01l.171.171,8.378-4.787A2.842,2.842,0,0,0,47.259,30h0C47.259,30.855,46.575,31.539,45.549,32.223Z" transform="translate(-7.763 -8.06)"/>
      <path id="Path_217" data-name="Path 217" class="cls-9" d="M24.274,17.907l33.34,18.978c1.026.684,1.71,1.368,1.71,2.223h0a2.842,2.842,0,0,0-1.71-2.394L24.274,17.736C21.881,16.368,20,17.565,20,20.3v.171C20,17.736,21.881,16.539,24.274,17.907Z" transform="translate(-19.829 -17.168)"/>
    </g>
  </g>
</svg>
