<?xml version="1.0" encoding="utf-8"?>
<!-- Generator: Adobe Illustrator 17.1.0, SVG Export Plug-In . SVG Version: 6.00 Build 0)  -->
<!DOCTYPE svg PUBLIC "-//W3C//DTD SVG 1.1//EN" "http://www.w3.org/Graphics/SVG/1.1/DTD/svg11.dtd">
<svg version="1.1" id="圖層_1" xmlns="http://www.w3.org/2000/svg" xmlns:xlink="http://www.w3.org/1999/xlink" x="0px" y="0px"
	 viewBox="0 123.3 595.3 595.3" enable-background="new 0 123.3 595.3 595.3" xml:space="preserve">
<polygon fill="#DDB97D" points="382.7,123.3 382.7,165.8 524.8,165.8 241.2,449.5 269.1,477.4 552.8,193.8 552.8,335.9 595.3,335.9 
	595.3,123.3 "/>
<path id="Fill-120" fill="#DDB97D" d="M489,718.6H63.8C28.6,718.5,0.1,690,0,654.8V229.6c0-35.2,28.6-63.8,63.8-63.8h233.8v42.5
	H63.8c-11.7,0-21.3,9.5-21.3,21.3v425.2c0,11.7,9.5,21.3,21.3,21.3H489c11.7,0,21.3-9.5,21.3-21.3V420.9h42.5v233.8
	C552.7,690,524.2,718.5,489,718.6"/>
</svg>
