<?xml version="1.0" encoding="utf-8"?>
<!-- Generator: Adobe Illustrator 21.0.2, SVG Export Plug-In . SVG Version: 6.00 Build 0)  -->
<svg version="1.1" id="圖層_1" xmlns="http://www.w3.org/2000/svg" xmlns:xlink="http://www.w3.org/1999/xlink" x="0px" y="0px"
	 viewBox="0 0 25.8 23.5" style="enable-background:new 0 0 25.8 23.5;" xml:space="preserve">
<style type="text/css">
	.st0{stroke:#000000;stroke-width:0.5;}
</style>
<g id="accounts" transform="translate(189.4 1678.4)">
	<g id="Group_216" transform="translate(55.78 76.874)">
		<path id="Path_81" class="st0" d="M-224.1-1745.9c0-3.2-2.6-5.8-5.8-5.8c-3.2,0-5.8,2.6-5.8,5.8c0,3.2,2.6,5.8,5.8,5.8
			C-226.7-1740.1-224.1-1742.7-224.1-1745.9z M-234.7-1745.9c0-2.6,2.2-4.8,4.8-4.8c2.6,0,4.8,2.2,4.8,4.8c0,2.6-2.1,4.8-4.8,4.8
			C-232.6-1741.1-234.7-1743.3-234.7-1745.9z M-239.8-1732.5v0.5h20.1v-0.5c0-4.5-4.7-8.6-10.1-8.6c-0.3,0-0.6,0-1,0
			c-0.3,0,0.4,0.3,0.5,0.5c0.3,0,0.2,0.4,0.5,0.4c4.9,0,9.1,3.6,9.1,7.6l0.5-0.5h-19.1l0.5,0.5c0.1-2.8,1.8-5.4,4.4-6.5
			c0.2-0.1,0.3-0.4,0.2-0.7c-0.1-0.2-0.4-0.3-0.6-0.2C-237.7-1738.6-239.6-1735.7-239.8-1732.5L-239.8-1732.5z"/>
	</g>
	<g id="Group_217" transform="translate(50.6 73.6)">
		<path id="Path_82" class="st0" d="M-229.9-1740.1c0.1,0,0.1,0,0.2,0c0,0,0,0,0,0c0.2,0,0.5,0,0.7,0c-0.3-0.3-0.4-0.7-0.5-1.1
			c-0.2,0-0.3,0-0.5,0c-2.7,0-4.8-2.1-4.8-4.8c0-2.7,2.1-4.8,4.8-4.8c2,0,3.8,1.2,4.5,3.1c0.1,0,0.2-0.1,0.3-0.1c0.1,0,0.2,0,0.3,0
			c0.1,0,0.3,0,0.4,0h0c-1-3-4.3-4.7-7.3-3.7c-3,1-4.7,4.3-3.7,7.3C-234.6-1741.7-232.4-1740.1-229.9-1740.1L-229.9-1740.1z"/>
		<path id="Path_83" class="st0" d="M-233-1732.3c0-0.3,0.1-0.5,0.2-0.7h-5.9c0.3-2.6,2-4.9,4.4-6c0.2-0.1,0.3-0.4,0.2-0.7
			c-0.1-0.2-0.4-0.3-0.6-0.2c-2.9,1.3-4.9,4.2-5,7.4v0.5h6.7C-233-1732.1-233-1732.2-233-1732.3z"/>
	</g>
</g>
</svg>
