<svg xmlns="http://www.w3.org/2000/svg" viewBox="2960 4278 230.731 66.213">
  <defs>
    <style>
      .cls-1 {
        fill: #fff;
      }
    </style>
  </defs>
  <g id="Available_on_the_App_Store__black__SVG" data-name="Available_on_the_App_Store_(black)_SVG" transform="translate(2958.458 4276.458)">
    <path id="Path_175" data-name="Path 175" class="cls-1" d="M231.621,60.466a6.637,6.637,0,0,1-6.644,6.637H7.543A6.646,6.646,0,0,1,.89,60.466V7.536A6.654,6.654,0,0,1,7.543.89H224.975a6.644,6.644,0,0,1,6.644,6.646l0,52.93Z" transform="translate(0.652 0.652)"/>
    <path id="Path_176" data-name="Path 176" d="M231.621,60.466a6.637,6.637,0,0,1-6.644,6.637H7.543A6.646,6.646,0,0,1,.89,60.466V7.536A6.654,6.654,0,0,1,7.543.89H224.975a6.644,6.644,0,0,1,6.644,6.646l0,52.93Z" transform="translate(0.652 0.652)"/>
    <path id="Path_177" data-name="Path 177" class="cls-1" d="M42.835,25.218a10.046,10.046,0,0,1,4.785-8.429,10.289,10.289,0,0,0-8.1-4.381c-3.409-.359-6.715,2.04-8.452,2.04-1.771,0-4.445-2.005-7.327-1.946a10.789,10.789,0,0,0-9.081,5.539c-3.927,6.8-1,16.789,2.764,22.284,1.882,2.693,4.081,5.7,6.96,5.591,2.816-.114,3.868-1.794,7.266-1.794,3.367,0,4.355,1.794,7.291,1.726,3.022-.047,4.925-2.7,6.741-5.419a22.215,22.215,0,0,0,3.083-6.279A9.719,9.719,0,0,1,42.835,25.218Z" transform="translate(9.376 9.068)"/>
    <path id="Path_178" data-name="Path 178" class="cls-1" d="M29.729,13.3a9.888,9.888,0,0,0,2.263-7.086A10.072,10.072,0,0,0,25.48,9.586a9.41,9.41,0,0,0-2.322,6.824A8.32,8.32,0,0,0,29.729,13.3Z" transform="translate(16.936 4.557)"/>
    <g id="Group_337" data-name="Group 337" transform="translate(73.53 31.192)">
      <path id="Path_179" data-name="Path 179" class="cls-1" d="M61.9,41.258H57.964l-2.156-6.774H48.315l-2.054,6.774H42.43L49.856,18.2h4.585Zm-6.741-9.616-1.95-6.022q-.309-.923-1.163-4.345h-.069q-.343,1.471-1.1,4.345l-1.917,6.022Z" transform="translate(-42.43 -17.855)"/>
      <path id="Path_180" data-name="Path 180" class="cls-1" d="M71.435,30.163a9.417,9.417,0,0,1-2.3,6.7A6.758,6.758,0,0,1,64,39.059,5.131,5.131,0,0,1,59.256,36.7v8.726H55.561V27.519q0-2.664-.137-5.466h3.249l.206,2.636h.069a6.573,6.573,0,0,1,10.521-.653A9.2,9.2,0,0,1,71.435,30.163Zm-3.764.135a6.856,6.856,0,0,0-1.1-4,3.785,3.785,0,0,0-3.216-1.641,3.842,3.842,0,0,0-2.48.906,4.2,4.2,0,0,0-1.454,2.379,4.825,4.825,0,0,0-.172,1.125v2.774A4.449,4.449,0,0,0,60.366,34.9a3.693,3.693,0,0,0,2.891,1.249,3.787,3.787,0,0,0,3.249-1.608A7.078,7.078,0,0,0,67.671,30.3Z" transform="translate(-32.906 -15.279)"/>
      <path id="Path_181" data-name="Path 181" class="cls-1" d="M82.473,30.163a9.417,9.417,0,0,1-2.3,6.7,6.761,6.761,0,0,1-5.128,2.19A5.131,5.131,0,0,1,70.292,36.7v8.726H66.6V27.519q0-2.664-.137-5.466h3.249l.206,2.636h.069a6.574,6.574,0,0,1,10.523-.653A9.2,9.2,0,0,1,82.473,30.163Zm-3.766.135a6.856,6.856,0,0,0-1.1-4A3.779,3.779,0,0,0,74.4,24.653a3.858,3.858,0,0,0-2.483.906,4.2,4.2,0,0,0-1.452,2.379,4.937,4.937,0,0,0-.173,1.125v2.774A4.464,4.464,0,0,0,71.4,34.9a3.7,3.7,0,0,0,2.894,1.249,3.782,3.782,0,0,0,3.249-1.608A7.078,7.078,0,0,0,78.707,30.3Z" transform="translate(-24.817 -15.279)"/>
      <path id="Path_182" data-name="Path 182" class="cls-1" d="M94.09,34.934a6.16,6.16,0,0,1-2.05,4.792,9.087,9.087,0,0,1-6.282,2.019,10.965,10.965,0,0,1-5.972-1.437l.854-3.079a10.279,10.279,0,0,0,5.338,1.438,5.036,5.036,0,0,0,3.249-.941,3.074,3.074,0,0,0,1.166-2.513,3.221,3.221,0,0,0-.96-2.362,8.9,8.9,0,0,0-3.182-1.778q-6.057-2.259-6.058-6.606a5.833,5.833,0,0,1,2.138-4.653A8.456,8.456,0,0,1,88,18a11.191,11.191,0,0,1,5.235,1.1L92.3,22.106a9.154,9.154,0,0,0-4.431-1.061A4.506,4.506,0,0,0,84.815,22a2.742,2.742,0,0,0-.927,2.09,2.824,2.824,0,0,0,1.062,2.258A11.967,11.967,0,0,0,88.3,28.13a11.362,11.362,0,0,1,4.379,2.8A5.844,5.844,0,0,1,94.09,34.934Z" transform="translate(-15.049 -17.999)"/>
      <path id="Path_183" data-name="Path 183" class="cls-1" d="M99.391,26.435H95.318v8.074q0,3.08,2.156,3.078a6.49,6.49,0,0,0,1.641-.172l.1,2.806a8.371,8.371,0,0,1-2.873.409,4.428,4.428,0,0,1-3.423-1.336q-1.23-1.336-1.232-4.483V26.428H89.263V23.655h2.426V20.61l3.629-1.1v4.14h4.072Z" transform="translate(-8.103 -16.888)"/>
      <path id="Path_184" data-name="Path 184" class="cls-1" d="M112.578,30.229a9.122,9.122,0,0,1-2.19,6.3,7.808,7.808,0,0,1-6.09,2.532,7.443,7.443,0,0,1-5.835-2.426,8.846,8.846,0,0,1-2.173-6.124,9.049,9.049,0,0,1,2.241-6.329,7.767,7.767,0,0,1,6.041-2.464,7.6,7.6,0,0,1,5.883,2.43A8.731,8.731,0,0,1,112.578,30.229Zm-3.83.085a7.446,7.446,0,0,0-.99-3.923,3.657,3.657,0,0,0-3.32-1.981,3.71,3.71,0,0,0-3.388,1.981,7.57,7.57,0,0,0-.991,3.993,7.424,7.424,0,0,0,.991,3.925,3.789,3.789,0,0,0,6.677-.033A7.476,7.476,0,0,0,108.748,30.314Z" transform="translate(-2.952 -15.277)"/>
      <path id="Path_185" data-name="Path 185" class="cls-1" d="M116.387,25.3a6.429,6.429,0,0,0-1.165-.1,3.487,3.487,0,0,0-3.012,1.473,5.548,5.548,0,0,0-.922,3.284v8.726h-3.695V27.29q0-2.872-.107-5.235H110.7l.135,3.182h.1a5.7,5.7,0,0,1,1.847-2.636,4.467,4.467,0,0,1,2.671-.891,5.932,5.932,0,0,1,.924.068l0,3.525Z" transform="translate(5.254 -15.279)"/>
      <path id="Path_186" data-name="Path 186" class="cls-1" d="M128.408,29.592a8.665,8.665,0,0,1-.135,1.676H117.189a4.823,4.823,0,0,0,1.608,3.767,5.5,5.5,0,0,0,3.625,1.161,12.259,12.259,0,0,0,4.485-.785l.579,2.563A13.866,13.866,0,0,1,121.911,39a8.082,8.082,0,0,1-6.076-2.274,8.406,8.406,0,0,1-2.206-6.107,9.525,9.525,0,0,1,2.055-6.259A7.081,7.081,0,0,1,121.5,21.7a6.2,6.2,0,0,1,5.443,2.667A8.975,8.975,0,0,1,128.408,29.592Zm-3.523-.958a5,5,0,0,0-.717-2.84,3.226,3.226,0,0,0-2.943-1.542,3.5,3.5,0,0,0-2.941,1.506,5.519,5.519,0,0,0-1.094,2.873l7.694,0Z" transform="translate(9.757 -15.29)"/>
    </g>
    <g id="Group_338" data-name="Group 338" transform="translate(74.906 11.356)">
      <path id="Path_187" data-name="Path 187" class="cls-1" d="M52.8,18.227H50.859L49.8,14.9H46.118l-1.01,3.329H43.224l3.65-11.335h2.253ZM49.482,13.5l-.958-2.96c-.1-.3-.286-1.009-.572-2.135h-.035c-.118.487-.286,1.194-.539,2.135l-.941,2.96Z" transform="translate(-43.224 -6.305)"/>
      <path id="Path_188" data-name="Path 188" class="cls-1" d="M57.336,8.717l-3.1,8.173H52.475L49.48,8.717h1.951l1.4,4.322c.236.723.437,1.412.587,2.067h.05c.135-.587.336-1.277.587-2.067l1.379-4.322h1.9Z" transform="translate(-38.639 -4.967)"/>
      <path id="Path_189" data-name="Path 189" class="cls-1" d="M59.963,16.961l-.135-.941h-.05a2.787,2.787,0,0,1-2.388,1.126,2.379,2.379,0,0,1-2.506-2.405c0-2.017,1.749-3.06,4.776-3.06V11.53c0-1.076-.572-1.615-1.7-1.615a3.816,3.816,0,0,0-2.135.607l-.369-1.194a5.232,5.232,0,0,1,2.809-.707C60.4,8.62,61.48,9.746,61.48,12v3.01a12.139,12.139,0,0,0,.118,1.951l-1.634,0ZM59.71,12.89c-2.019,0-3.028.489-3.028,1.648a1.157,1.157,0,0,0,1.244,1.277,1.738,1.738,0,0,0,1.783-1.664Z" transform="translate(-34.678 -5.038)"/>
      <path id="Path_190" data-name="Path 190" class="cls-1" d="M61.479,8.858a1.086,1.086,0,1,1,1.144-1.094A1.067,1.067,0,0,1,61.479,8.858Zm.943,9.519H60.606V10.2h1.816Z" transform="translate(-30.632 -6.454)"/>
      <path id="Path_191" data-name="Path 191" class="cls-1" d="M65.246,18.476H63.43V6.553h1.816Z" transform="translate(-28.414 -6.553)"/>
      <path id="Path_192" data-name="Path 192" class="cls-1" d="M71.08,16.962l-.135-.941h-.05a2.787,2.787,0,0,1-2.388,1.126A2.379,2.379,0,0,1,66,14.742c0-2.017,1.749-3.06,4.776-3.06V11.53c0-1.076-.572-1.615-1.7-1.615a3.816,3.816,0,0,0-2.135.607l-.371-1.2a5.232,5.232,0,0,1,2.809-.707c2.135,0,3.213,1.126,3.213,3.381v3.01a12.594,12.594,0,0,0,.116,1.951Zm-.253-4.071c-2.019,0-3.027.489-3.027,1.648a1.157,1.157,0,0,0,1.244,1.277,1.738,1.738,0,0,0,1.783-1.664Z" transform="translate(-26.529 -5.039)"/>
      <path id="Path_193" data-name="Path 193" class="cls-1" d="M75.853,18.661a2.774,2.774,0,0,1-2.57-1.447h-.036l-.1,1.262H71.6c.05-.655.068-1.4.068-2.2V6.553H73.48V11.5h.035a2.8,2.8,0,0,1,2.606-1.362c1.969,0,3.348,1.683,3.348,4.137C79.47,16.81,77.938,18.661,75.853,18.661Zm-.369-7.1a2.09,2.09,0,0,0-2,2.17v1.43a2,2,0,0,0,1.97,2.052c1.36,0,2.17-1.109,2.17-2.875C77.621,12.691,76.778,11.563,75.484,11.563Z" transform="translate(-22.429 -6.553)"/>
      <path id="Path_194" data-name="Path 194" class="cls-1" d="M79.5,18.476H77.689V6.553H79.5Z" transform="translate(-17.962 -6.553)"/>
      <path id="Path_195" data-name="Path 195" class="cls-1" d="M87.488,13.318H82.036a2.346,2.346,0,0,0,2.573,2.421,6.131,6.131,0,0,0,2.2-.386l.282,1.262a6.813,6.813,0,0,1-2.74.5A3.794,3.794,0,0,1,80.284,13c0-2.506,1.549-4.39,3.866-4.39,2.085,0,3.4,1.548,3.4,3.885A3.42,3.42,0,0,1,87.488,13.318Zm-1.665-1.295c0-1.262-.639-2.152-1.8-2.152a2.157,2.157,0,0,0-1.986,2.152Z" transform="translate(-16.06 -5.045)"/>
      <path id="Path_196" data-name="Path 196" class="cls-1" d="M92.458,17.146a3.89,3.89,0,0,1-3.936-4.2A3.981,3.981,0,0,1,92.594,8.62a3.86,3.86,0,0,1,3.936,4.189A4.005,4.005,0,0,1,92.458,17.146Zm.069-7.2c-1.312,0-2.152,1.227-2.152,2.943,0,1.683.858,2.91,2.135,2.91s2.133-1.312,2.133-2.944C94.645,11.192,93.8,9.947,92.527,9.947Z" transform="translate(-10.022 -5.038)"/>
      <path id="Path_197" data-name="Path 197" class="cls-1" d="M101.806,16.962H99.992V12.269c0-1.445-.555-2.17-1.648-2.17a1.888,1.888,0,0,0-1.818,2v4.861H94.712V11.125c0-.723-.019-1.5-.068-2.338h1.6l.085,1.262h.05a2.932,2.932,0,0,1,2.589-1.43c1.714,0,2.84,1.312,2.84,3.447v4.9Z" transform="translate(-5.535 -5.039)"/>
      <path id="Path_198" data-name="Path 198" class="cls-1" d="M107.737,10.94h-2v3.969q0,1.515,1.057,1.515a3.593,3.593,0,0,0,.808-.085l.05,1.379a4.047,4.047,0,0,1-1.411.2c-1.431,0-2.286-.79-2.286-2.859V10.94h-1.192V9.578h1.192v-1.5l1.781-.539V9.577h2Z" transform="translate(0.418 -5.828)"/>
      <path id="Path_199" data-name="Path 199" class="cls-1" d="M114.186,18.476h-1.818V13.818c0-1.463-.555-2.2-1.648-2.2a1.779,1.779,0,0,0-1.814,1.934v4.927h-1.818V6.553h1.818v4.91h.035a2.75,2.75,0,0,1,2.456-1.329c1.731,0,2.79,1.345,2.79,3.482Z" transform="translate(3.587 -6.553)"/>
      <path id="Path_200" data-name="Path 200" class="cls-1" d="M119.586,13.318h-5.45a2.343,2.343,0,0,0,2.572,2.421,6.124,6.124,0,0,0,2.2-.386l.284,1.262a6.822,6.822,0,0,1-2.742.5A3.794,3.794,0,0,1,112.382,13c0-2.506,1.549-4.39,3.866-4.39,2.085,0,3.4,1.548,3.4,3.885A3.51,3.51,0,0,1,119.586,13.318Zm-1.665-1.295c0-1.262-.638-2.152-1.8-2.152a2.154,2.154,0,0,0-1.986,2.152Z" transform="translate(7.467 -5.045)"/>
    </g>
  </g>
</svg>
